<?xml version="1.0" standalone="no"?>
<!DOCTYPE svg PUBLIC "-//W3C//DTD SVG 20010904//EN"
 "http://www.w3.org/TR/2001/REC-SVG-20010904/DTD/svg10.dtd">
<svg version="1.0" xmlns="http://www.w3.org/2000/svg"
 width="301.000000pt" height="298.000000pt" viewBox="0 0 301.000000 298.000000"
 preserveAspectRatio="xMidYMid meet">

<g transform="translate(0.000000,298.000000) scale(0.100000,-0.100000)"
fill="#000000" stroke="none">
<path d="M1240 2806 c-151 -27 -256 -63 -401 -138 -347 -179 -601 -517 -686
-908 -26 -120 -26 -420 0 -540 113 -522 515 -924 1037 -1037 120 -26 420 -26
540 0 523 112 924 513 1037 1037 26 120 26 420 0 540 -53 247 -174 474 -349
656 -181 188 -421 322 -678 379 -102 23 -398 29 -500 11z m436 -81 c518 -91
928 -502 1019 -1023 20 -111 20 -313 0 -424 -20 -116 -59 -235 -109 -338 -53
-107 -78 -147 -157 -244 l-63 -79 -22 84 c-60 226 -155 403 -290 543 -93 95
-181 150 -318 200 -16 5 -14 10 20 37 53 42 102 103 133 169 24 50 26 66 26
175 0 117 -1 122 -34 188 -44 88 -121 164 -208 207 -60 30 -80 35 -165 38
-141 6 -233 -29 -330 -124 -95 -93 -132 -191 -126 -332 3 -85 8 -105 37 -165
37 -73 109 -153 169 -187 l39 -22 -72 -37 c-199 -103 -364 -289 -489 -552 -30
-63 -67 -151 -82 -196 -15 -46 -31 -83 -35 -83 -13 0 -141 147 -192 220 -95
138 -172 325 -202 494 -19 114 -19 316 1 431 88 511 501 927 1010 1019 108 19
330 20 440 1z m-715 -2296 c-5 -39 -12 -73 -14 -75 -4 -4 -36 8 -85 32 -1 0
21 52 50 115 l53 113 3 -57 c2 -32 -1 -89 -7 -128z m1119 67 l27 -82 -28 -16
c-16 -9 -31 -13 -34 -8 -3 4 -8 57 -11 117 -6 124 1 123 46 -11z"/>
</g>
</svg>
